<svg width="300" height="84" viewBox="0 0 300 84" fill="none" xmlns="http://www.w3.org/2000/svg">
<g clip-path="url(#clip0_4008_3)">
<path fill-rule="evenodd" clip-rule="evenodd" d="M29.927 38.4727C29.5936 37.142 28.8682 35.5214 28.4022 34.23C28.045 33.2408 27.377 30.7382 26.7814 30.1418C26.7794 29.4803 25.7944 26.7849 25.4378 26.1458L24.7268 23.9969C24.4436 23.4537 24.859 23.7453 23.9532 23.6818L16.7695 23.6913L16.7618 28.1134C17.7768 28.4497 18.5091 29.4066 18.5091 30.5344C18.5091 31.9427 17.3673 33.0842 15.959 33.0842C14.5508 33.0842 13.4092 31.9427 13.4092 30.5344C13.4092 29.497 14.0287 28.6043 14.9176 28.206C15.2505 27.1707 14.9393 24.8891 15.0121 23.6766L7.23219 23.6933C7.13301 23.9015 7.17686 23.7476 7.08804 24.1207C5.60832 39.2878 4.12892 54.4496 2.69552 69.6208C2.331 71.6658 1.8625 75.9493 2.50839 77.7788C3.27524 79.9499 5.00492 81.6189 7.19201 82.334C9.73254 82.8959 12.9638 82.6364 15.6611 82.6366C18.6327 82.6371 21.605 82.6369 24.5756 82.6385L24.5347 69.4972L24.5449 72.7389C24.552 71.2223 24.5593 69.7078 24.5587 68.2006C24.558 65.769 24.5595 63.3376 24.5591 60.9062C24.5587 59.2127 24.3514 54.8607 24.6402 53.4794L27.4753 61.254C29.776 67.215 32.2888 76.7265 35.1627 82.1593C35.3232 82.9085 35.2926 82.6439 37.3821 82.6382L45.1626 82.6389C48.275 82.642 52.0781 83.0945 54.3835 81.5179C54.8543 81.2177 54.8745 81.2678 55.008 80.9732C56.3754 80.2854 57.9533 77.5842 57.7196 75.007C57.4789 72.351 57.1998 69.6604 56.9492 67.0243C56.4413 61.6798 55.9362 56.3101 55.3893 50.9953L54.1274 37.85C53.7541 35.361 53.2449 24.9924 52.6191 23.7055L44.9479 23.6766L44.9357 28.1796C45.8576 28.5636 46.506 29.4732 46.506 30.5344C46.506 31.9427 45.3644 33.0842 43.9562 33.0842C42.5479 33.0842 41.4061 31.9427 41.4061 30.5344C41.4061 29.4209 42.1201 28.4738 43.1152 28.1265L43.1008 23.6782L35.2839 23.7159L35.292 52.6601L29.927 38.4727Z" fill="#1C6BD2"/>
<path fill-rule="evenodd" clip-rule="evenodd" d="M16.762 28.0449L16.7696 23.6228C16.6327 18.3143 16.4985 14.2767 19.4214 10.6127C22.0361 7.33512 25.3451 5.31866 29.9258 5.32073C33.1051 5.32208 36.3035 6.55671 38.52 8.48459C38.9058 8.82002 39.0712 9.13344 39.469 9.47724C40.1118 10.033 39.9943 9.9986 40.4456 10.6C43.2958 14.3961 43.3263 18.1008 43.101 23.6097L43.1154 28.058C43.3787 27.966 43.6616 27.9159 43.9564 27.9159C44.3036 27.9159 44.6342 27.9855 44.9359 28.1111L44.9481 23.6081C44.6516 17.7683 45.7789 14.0457 41.2933 8.62381L40.1773 7.46804C39.4805 6.67854 36.9987 5.1749 35.8276 4.67117C33.5457 3.6896 30.5839 3.2349 27.828 3.63873C24.0354 4.19477 21.0471 5.9309 18.6501 8.54901C16.1603 11.2685 14.9096 15.0408 14.9103 19.017C14.9107 21.854 14.7089 25.4178 14.9019 28.145C15.2242 27.9981 15.5822 27.9159 15.9592 27.9159C16.2397 27.9159 16.5096 27.961 16.762 28.0449Z" fill="#625DF5"/>
<path d="M17.0325 27.0869L17.0403 22.5867C16.9036 17.1843 16.7694 13.0753 19.6901 9.34659C22.3028 6.01095 25.6094 3.95885 30.1863 3.96093C33.3632 3.96247 36.5595 5.21901 38.7742 7.1808C39.1598 7.52223 39.3252 7.84118 39.7226 8.19109C40.3647 8.75656 40.2473 8.72169 40.6985 9.33376C43.5464 13.1968 43.5768 16.9671 43.3518 22.5733L43.3015 26.9555C43.699 27.0024 44.1223 26.8304 44.1027 27.0806C44.4495 27.0806 44.884 27.0265 45.1853 27.1545L45.1974 22.5718C44.9013 16.6286 46.0276 12.8403 41.5454 7.32231L40.4303 6.14641C39.7341 5.34291 37.2542 3.81265 36.0839 3.30001C33.8036 2.30119 30.8442 1.83813 28.0903 2.24945C24.3007 2.81518 21.3145 4.58184 18.9193 7.24654C16.4316 10.0141 15.1817 13.8531 15.1825 17.8995C15.1827 20.7866 14.7152 27.0869 14.7321 27.147C14.749 27.207 16.3487 27.0975 16.2896 27.0265C16.2305 26.9554 16.7417 27.147 17.0325 27.0869Z" fill="#1C6BD2" stroke="#1C6BD2" stroke-width="2.09911" stroke-miterlimit="22.9256"/>
<path d="M86.7962 83.2579C82.2608 83.2579 78.2293 82.334 74.7017 80.4862C71.1742 78.6385 68.4025 76.0628 66.3868 72.7592C64.427 69.4556 63.4471 65.6201 63.4471 61.2526C63.4471 56.8852 64.427 53.0496 66.3868 49.7461C68.3465 46.4425 71.0622 43.8668 74.5337 42.019C78.0053 40.1713 82.0088 39.2474 86.5442 39.2474C90.8557 39.2474 94.6352 40.1993 97.8828 42.103C101.186 43.9508 103.762 46.7784 105.61 50.586C107.514 54.3935 108.466 59.2089 108.466 65.0322H77.0534L78.9012 62.8484C78.9012 64.6402 79.1812 66.208 79.7411 67.5518C80.301 68.8957 81.1409 69.9315 82.2608 70.6594C83.3806 71.3874 84.7525 71.7513 86.3763 71.7513C88.224 71.7513 89.8198 71.3314 91.1637 70.4915C92.5635 69.5956 93.4314 68.5037 93.7673 67.2159L107.038 71.3314C106.03 74.243 104.406 76.5947 102.166 78.3865C99.9826 80.1223 97.5189 81.3821 94.7752 82.166C92.0875 82.8939 89.4279 83.2579 86.7962 83.2579ZM78.9852 58.229L77.3894 55.7933H94.7752L93.2634 58.229C93.2634 56.0453 92.8994 54.3375 92.1715 53.1056C91.4436 51.8738 90.5197 51.0059 89.3999 50.502C88.336 49.942 87.2442 49.6621 86.1243 49.6621C84.9484 49.6621 83.8006 49.942 82.6807 50.502C81.6169 51.0059 80.721 51.8738 79.9931 53.1056C79.3211 54.3375 78.9852 56.0453 78.9852 58.229ZM110.996 82.25L128.298 58.397L140.225 40.2552H158.03L140.645 64.3602L128.97 82.25H110.996ZM141.149 82.25L129.642 64.3602L112.088 40.2552H129.894L141.82 58.397L159.038 82.25H141.149ZM185.73 83.2579C180.523 83.2579 176.659 82.026 174.139 79.5623C171.62 77.0986 170.36 73.5711 170.36 68.9797V27.1529H185.478V64.8642C185.478 66.432 185.702 67.5518 186.15 68.2238C186.598 68.8957 187.354 69.2316 188.418 69.2316C188.866 69.2316 189.425 69.0916 190.097 68.8117C190.769 68.5317 191.301 68.2517 191.693 67.9718L196.817 78.8904C195.529 80.0103 193.849 81.0182 191.777 81.914C189.705 82.8099 187.69 83.2579 185.73 83.2579ZM164.061 52.8537V40.2552H194.129V52.8537H164.061ZM229.334 82.25L228.914 72.5912V61.6726C228.914 59.7128 228.802 57.949 228.578 56.3812C228.354 54.8134 227.794 53.5816 226.898 52.6857C226.002 51.7898 224.546 51.3419 222.53 51.3419C221.131 51.3419 219.983 51.6778 219.087 52.3497C218.191 53.0217 217.435 53.8056 216.819 54.7014L203.633 50.502C204.809 48.2063 206.264 46.2185 208 44.5387C209.792 42.8589 211.864 41.5711 214.215 40.6752C216.623 39.7233 219.283 39.2474 222.194 39.2474C226.674 39.2474 230.509 40.0593 233.701 41.6831C236.893 43.3069 239.328 45.5746 241.008 48.4862C242.688 51.3979 243.528 54.7854 243.528 58.6489V82.25H229.334ZM218.163 83.2579C213.292 83.2579 209.484 82.166 206.74 79.9823C204.053 77.7426 202.709 74.551 202.709 70.4075C202.709 66.04 204.053 62.8204 206.74 60.7487C209.484 58.621 213.292 57.5571 218.163 57.5571H230.509V66.208H224.126C222.167 66.208 220.655 66.544 219.591 67.2159C218.527 67.8878 217.995 68.8397 217.995 70.0715C217.995 70.9114 218.359 71.5553 219.087 72.0033C219.815 72.4512 220.823 72.6752 222.111 72.6752C223.51 72.6752 224.714 72.4232 225.722 71.9193C226.73 71.3594 227.514 70.6035 228.074 69.6516C228.634 68.6437 228.914 67.4958 228.914 66.208H232.861C232.861 71.6393 231.573 75.8388 228.998 78.8064C226.422 81.7741 222.81 83.2579 218.163 83.2579ZM254.018 82.25V23.4573H269.136V82.25H254.018ZM280.015 82.25V23.4573H295.133V82.25H280.015Z" fill="white"/>
</g>
<defs>
<clipPath id="clip0_4008_3">
<rect width="300" height="83.9895" fill="white"/>
</clipPath>
</defs>
</svg>
