<svg version="1.1" id="Layer_1" xmlns="http://www.w3.org/2000/svg" xmlns:xlink="http://www.w3.org/1999/xlink" x="0px" y="0px"
	 width="100%" viewBox="0 0 1024 500" enable-background="new 0 0 1024 500" xml:space="preserve">
<path fill="#FFFFFF" opacity="1.000000" stroke="none" 
	d="
M623.000000,501.000000 
	C415.367279,501.000000 208.234589,501.000000 1.050936,501.000000 
	C1.050936,334.394623 1.050936,167.789230 1.050936,1.091914 
	C342.216095,1.091914 683.432190,1.091914 1024.824219,1.091914 
	C1024.824219,167.666519 1024.824219,334.333252 1024.824219,501.000000 
	C891.122498,501.000000 757.311218,501.000000 623.000000,501.000000 
M71.500000,351.865936 
	C80.586609,351.865936 89.673218,351.865936 99.234398,351.865936 
	C99.234398,300.212219 99.234398,249.375229 99.234398,197.310074 
	C100.962959,199.869583 101.999641,201.338425 102.969429,202.850189 
	C133.984726,251.199615 165.015411,299.539215 195.947418,347.941864 
	C197.748550,350.760284 199.609238,352.002960 203.088486,351.956726 
	C218.749176,351.748535 234.414200,351.865936 250.077652,351.865936 
	C251.665115,351.865936 253.252579,351.865936 254.808167,351.865936 
	C254.808167,268.509155 254.808167,185.948349 254.808167,103.331367 
	C235.896988,103.331367 217.336746,103.331367 198.247482,103.331367 
	C198.247482,154.511871 198.247482,205.362991 198.247482,257.680328 
	C196.579849,255.276703 195.729965,254.132095 194.962860,252.934464 
	C163.801193,204.284500 132.622482,155.645370 101.554375,106.935730 
	C99.741226,104.093018 97.897141,102.835228 94.419106,102.909821 
	C83.259865,103.149124 72.092262,102.998787 60.927883,102.998787 
	C54.818253,102.998787 48.708622,102.998787 42.577034,102.998787 
	C42.577034,186.273163 42.577034,268.947144 42.577034,351.865814 
	C52.185684,351.865814 61.342842,351.865814 71.500000,351.865936 
M653.435791,237.544861 
	C653.167358,237.349457 652.832764,237.204468 652.639832,236.951492 
	C638.284729,218.131271 615.271240,215.770798 597.187012,231.253204 
	C596.418884,231.910812 595.484070,232.373657 594.047363,233.301514 
	C594.047363,229.762695 594.047363,227.010452 594.047363,224.169403 
	C583.466003,224.169403 573.204224,224.169403 562.770813,224.169403 
	C562.770813,254.819977 562.770813,285.255188 562.770813,315.625153 
	C573.382202,315.625153 583.758484,315.625153 594.212402,315.625153 
	C594.212402,298.582489 594.172913,281.917267 594.250977,265.252594 
	C594.264160,262.443481 594.443237,259.548615 595.140015,256.846619 
	C596.755432,250.582153 601.372559,247.126724 607.853516,246.838715 
	C618.401306,246.370010 624.853577,252.221939 625.010681,263.054108 
	C625.242737,279.050262 625.099121,295.051880 625.114990,311.051178 
	C625.116577,312.641602 625.115173,314.232025 625.115173,315.774445 
	C636.051636,315.774445 646.322998,315.774445 656.960693,315.774445 
	C656.960693,313.925232 656.960449,312.298798 656.960693,310.672363 
	C656.963135,294.339508 656.869568,278.005829 657.008667,261.674133 
	C657.078552,253.469238 662.001404,247.715881 669.087097,246.933548 
	C678.710938,245.871002 685.069763,249.953979 687.059631,258.718872 
	C687.642639,261.287079 687.833496,263.990997 687.845886,266.634369 
	C687.917114,281.800293 687.873169,296.966705 687.894287,312.132935 
	C687.896057,313.384155 688.091736,314.635101 688.180847,315.691254 
	C698.821960,315.691254 709.067688,315.691254 719.619568,315.691254 
	C719.619568,296.074219 719.637939,276.767090 719.598206,257.460052 
	C719.592712,254.799835 719.367188,252.133987 719.126587,249.481354 
	C718.146362,238.675964 712.835205,230.809067 703.177612,225.783859 
	C685.903503,216.795410 669.053650,220.617966 653.435791,237.544861 
M420.397034,315.999512 
	C421.649384,315.894714 422.901764,315.789948 424.573120,315.650116 
	C424.573120,303.617401 424.573120,291.957306 424.573120,279.161652 
	C431.789673,286.484497 438.169861,293.035278 444.637726,299.498383 
	C450.169098,305.025665 454.933136,312.518799 461.636108,315.334045 
	C468.157166,318.072968 476.710022,315.981018 484.370758,315.997253 
	C489.915985,316.009033 495.461273,315.999542 501.006531,315.999542 
	C501.239594,315.508759 501.472656,315.017975 501.705719,314.527161 
	C485.975006,298.808441 470.244293,283.089752 453.287750,266.146149 
	C467.482025,252.138733 481.823883,237.985687 496.038605,223.958084 
	C484.071167,223.958084 471.749695,223.853043 459.433929,224.070618 
	C457.573456,224.103485 455.336700,225.221710 453.960052,226.549301 
	C446.168396,234.063263 438.547394,241.756241 430.958801,249.477249 
	C429.044617,251.424805 427.461517,253.697739 425.726318,255.821152 
	C425.175079,255.464188 424.623871,255.107224 424.072662,254.750275 
	C424.072662,223.765411 424.072662,192.780548 424.072662,162.072815 
	C413.197601,162.072815 402.946350,162.072815 392.782745,162.072815 
	C392.782745,213.511337 392.782745,264.580963 392.782745,315.999542 
	C401.813049,315.999542 410.615021,315.999542 420.397034,315.999512 
M732.994934,273.352448 
	C734.340149,292.072815 742.523438,306.937744 759.858887,314.633514 
	C777.373108,322.408691 794.218506,320.022034 809.073486,305.638794 
	C809.073486,309.447693 809.073486,312.501404 809.073486,315.770569 
	C819.722900,315.770569 829.954468,315.770569 840.385498,315.770569 
	C840.385498,285.155457 840.385498,254.757782 840.385498,224.250275 
	C829.755188,224.250275 819.366455,224.250275 808.626953,224.250275 
	C808.626953,226.941895 808.626953,229.336456 808.626953,232.269562 
	C807.104065,231.112305 806.080139,230.325775 805.047485,229.550735 
	C789.543213,217.914017 765.603821,218.402222 750.721619,230.844971 
	C737.802002,241.646805 732.376709,255.763718 732.994934,273.352448 
M365.284241,289.244019 
	C362.456757,287.846161 359.490997,286.666870 356.839935,284.990021 
	C354.088562,283.249786 352.244690,283.657623 350.064087,286.005310 
	C343.687775,292.870270 335.436096,294.184479 326.656647,292.977173 
	C316.481354,291.577911 310.029663,283.645874 311.420502,274.195496 
	C333.271118,274.195496 355.186890,274.195496 377.492401,274.195496 
	C377.935944,258.098511 375.256439,243.597580 362.518677,232.825577 
	C349.971069,222.214386 335.141998,219.433533 319.419403,222.084930 
	C300.353455,225.300186 286.717224,236.345490 280.378052,254.518280 
	C274.143890,272.389984 277.757843,289.029205 291.152496,302.948334 
	C305.282379,317.631500 322.777802,320.895721 342.084167,317.457733 
	C356.557770,314.880371 368.028961,307.766479 375.875946,294.633118 
	C372.374878,292.881805 369.143799,291.265564 365.284241,289.244019 
M1008.036499,236.494720 
	C1008.036499,232.391861 1008.036499,228.289001 1008.036499,223.707428 
	C1001.279907,223.707428 995.063660,223.707428 988.456909,223.707428 
	C988.456909,212.132019 988.456909,201.055023 988.456909,189.943756 
	C977.787415,189.943756 967.542908,189.943756 956.769897,189.943756 
	C956.769897,201.392944 956.769897,212.608231 956.769897,224.148529 
	C952.136108,224.148529 948.030273,224.148529 943.937256,224.148529 
	C943.937256,232.240433 943.937256,239.983139 943.937256,248.276260 
	C948.380127,248.276260 952.595825,248.276260 956.993225,248.276260 
	C956.993225,261.312531 956.747559,273.800110 957.046631,286.274628 
	C957.594299,309.117371 971.536621,320.967896 994.262939,318.294373 
	C1000.375000,317.575348 1006.264099,316.256866 1011.559448,312.653076 
	C1008.911011,304.104980 1006.366516,295.892181 1003.809448,287.638977 
	C994.316528,291.763611 989.561462,290.199371 989.165405,282.274384 
	C988.603943,271.039581 989.022888,259.755768 989.022888,247.965485 
	C995.456726,247.965485 1001.672424,247.965485 1008.036499,247.965485 
	C1008.036499,244.120270 1008.036499,240.804337 1008.036499,236.494720 
M886.417603,316.002869 
	C888.837097,316.002869 891.256592,316.002869 893.860779,316.002869 
	C893.860779,299.826385 893.778931,284.349609 893.886047,268.874146 
	C893.975891,255.898010 901.868225,248.222763 914.789368,249.104736 
	C919.735352,249.442352 924.571167,251.393478 929.742249,252.680267 
	C933.764771,244.511398 937.999207,235.912155 942.375305,227.025330 
	C935.728210,222.794220 928.719910,220.966675 921.303955,221.262177 
	C909.957581,221.714279 901.460693,227.767715 893.820435,237.241013 
	C893.820435,232.133820 893.820435,228.233078 893.820435,224.246704 
	C882.997681,224.246704 872.615234,224.246704 862.269653,224.246704 
	C862.269653,254.938354 862.269653,285.336823 862.269653,316.002869 
	C870.167908,316.002869 877.803650,316.002869 886.417603,316.002869 
M752.497681,347.718018 
	C610.115234,346.982147 467.734680,345.559540 325.351593,345.044037 
	C325.279694,345.916687 325.207825,346.789337 325.135925,347.661987 
	C327.209900,348.029083 329.279297,348.687042 331.358459,348.719574 
	C362.676086,349.209747 393.993774,349.780945 425.313812,350.017944 
	C607.923584,351.399963 790.533875,352.704529 973.144653,353.949280 
	C974.998047,353.961914 976.859314,352.815186 978.716919,352.209656 
	C976.788513,351.130829 974.928955,349.886414 972.902344,349.043762 
	C971.905334,348.629242 970.599060,348.957977 969.432739,348.951355 
	C897.454041,348.542725 825.475281,348.134155 752.497681,347.718018 
M528.488342,223.960693 
	C521.884216,223.960693 515.280090,223.960693 508.829773,223.960693 
	C508.829773,254.942657 508.829773,285.323853 508.829773,315.771393 
	C519.361511,315.771393 529.614075,315.771393 540.018188,315.771393 
	C540.018188,285.163940 540.018188,254.784378 540.018188,223.960693 
	C536.395020,223.960693 532.939819,223.960693 528.488342,223.960693 
M513.079712,200.502472 
	C522.274597,206.817368 532.254028,205.910156 539.045471,198.141968 
	C545.296204,190.992233 545.286316,180.653168 539.021912,173.559464 
	C531.869873,165.460617 520.215759,164.743607 512.324951,171.916962 
	C503.793488,179.672745 503.878693,191.110672 513.079712,200.502472 
z"/>
<path fill="#39B6FF" opacity="1.000000" stroke="none" 
	d="
M71.000000,351.865875 
	C61.342842,351.865814 52.185684,351.865814 42.577034,351.865814 
	C42.577034,268.947144 42.577034,186.273163 42.577034,102.998787 
	C48.708622,102.998787 54.818253,102.998787 60.927883,102.998787 
	C72.092262,102.998787 83.259865,103.149124 94.419106,102.909821 
	C97.897141,102.835228 99.741226,104.093018 101.554375,106.935730 
	C132.622482,155.645370 163.801193,204.284500 194.962860,252.934464 
	C195.729965,254.132095 196.579849,255.276703 198.247482,257.680328 
	C198.247482,205.362991 198.247482,154.511871 198.247482,103.331367 
	C217.336746,103.331367 235.896988,103.331367 254.808167,103.331367 
	C254.808167,185.948349 254.808167,268.509155 254.808167,351.865936 
	C253.252579,351.865936 251.665115,351.865936 250.077652,351.865936 
	C234.414200,351.865936 218.749176,351.748535 203.088486,351.956726 
	C199.609238,352.002960 197.748550,350.760284 195.947418,347.941864 
	C165.015411,299.539215 133.984726,251.199615 102.969429,202.850189 
	C101.999641,201.338425 100.962959,199.869583 99.234398,197.310074 
	C99.234398,249.375229 99.234398,300.212219 99.234398,351.865936 
	C89.673218,351.865936 80.586609,351.865936 71.000000,351.865875 
z"/>
<path fill="#020202" opacity="1.000000" stroke="none" 
	d="
M653.735291,237.294571 
	C669.053650,220.617966 685.903503,216.795410 703.177612,225.783859 
	C712.835205,230.809067 718.146362,238.675964 719.126587,249.481354 
	C719.367188,252.133987 719.592712,254.799835 719.598206,257.460052 
	C719.637939,276.767090 719.619568,296.074219 719.619568,315.691254 
	C709.067688,315.691254 698.821960,315.691254 688.180847,315.691254 
	C688.091736,314.635101 687.896057,313.384155 687.894287,312.132935 
	C687.873169,296.966705 687.917114,281.800293 687.845886,266.634369 
	C687.833496,263.990997 687.642639,261.287079 687.059631,258.718872 
	C685.069763,249.953979 678.710938,245.871002 669.087097,246.933548 
	C662.001404,247.715881 657.078552,253.469238 657.008667,261.674133 
	C656.869568,278.005829 656.963135,294.339508 656.960693,310.672363 
	C656.960449,312.298798 656.960693,313.925232 656.960693,315.774445 
	C646.322998,315.774445 636.051636,315.774445 625.115173,315.774445 
	C625.115173,314.232025 625.116577,312.641602 625.114990,311.051178 
	C625.099121,295.051880 625.242737,279.050262 625.010681,263.054108 
	C624.853577,252.221939 618.401306,246.370010 607.853516,246.838715 
	C601.372559,247.126724 596.755432,250.582153 595.140015,256.846619 
	C594.443237,259.548615 594.264160,262.443481 594.250977,265.252594 
	C594.172913,281.917267 594.212402,298.582489 594.212402,315.625153 
	C583.758484,315.625153 573.382202,315.625153 562.770813,315.625153 
	C562.770813,285.255188 562.770813,254.819977 562.770813,224.169403 
	C573.204224,224.169403 583.466003,224.169403 594.047363,224.169403 
	C594.047363,227.010452 594.047363,229.762695 594.047363,233.301514 
	C595.484070,232.373657 596.418884,231.910812 597.187012,231.253204 
	C615.271240,215.770798 638.284729,218.131271 652.639832,236.951492 
	C652.832764,237.204468 653.167358,237.349457 653.735291,237.294571 
z"/>
<path fill="#000000" opacity="1.000000" stroke="none" 
	d="
M419.907013,315.999512 
	C410.615021,315.999542 401.813049,315.999542 392.782745,315.999542 
	C392.782745,264.580963 392.782745,213.511337 392.782745,162.072815 
	C402.946350,162.072815 413.197601,162.072815 424.072662,162.072815 
	C424.072662,192.780548 424.072662,223.765411 424.072662,254.750275 
	C424.623871,255.107224 425.175079,255.464188 425.726318,255.821152 
	C427.461517,253.697739 429.044617,251.424805 430.958801,249.477249 
	C438.547394,241.756241 446.168396,234.063263 453.960052,226.549301 
	C455.336700,225.221710 457.573456,224.103485 459.433929,224.070618 
	C471.749695,223.853043 484.071167,223.958084 496.038605,223.958084 
	C481.823883,237.985687 467.482025,252.138733 453.287750,266.146149 
	C470.244293,283.089752 485.975006,298.808441 501.705719,314.527161 
	C501.472656,315.017975 501.239594,315.508759 501.006531,315.999542 
	C495.461273,315.999542 489.915985,316.009033 484.370758,315.997253 
	C476.710022,315.981018 468.157166,318.072968 461.636108,315.334045 
	C454.933136,312.518799 450.169098,305.025665 444.637726,299.498383 
	C438.169861,293.035278 431.789673,286.484497 424.573120,279.161652 
	C424.573120,291.957306 424.573120,303.617401 424.573120,315.650116 
	C422.901764,315.789948 421.649384,315.894714 419.907013,315.999512 
z"/>
<path fill="#030303" opacity="1.000000" stroke="none" 
	d="
M732.987427,272.875000 
	C732.376709,255.763718 737.802002,241.646805 750.721619,230.844971 
	C765.603821,218.402222 789.543213,217.914017 805.047485,229.550735 
	C806.080139,230.325775 807.104065,231.112305 808.626953,232.269562 
	C808.626953,229.336456 808.626953,226.941895 808.626953,224.250275 
	C819.366455,224.250275 829.755188,224.250275 840.385498,224.250275 
	C840.385498,254.757782 840.385498,285.155457 840.385498,315.770569 
	C829.954468,315.770569 819.722900,315.770569 809.073486,315.770569 
	C809.073486,312.501404 809.073486,309.447693 809.073486,305.638794 
	C794.218506,320.022034 777.373108,322.408691 759.858887,314.633514 
	C742.523438,306.937744 734.340149,292.072815 732.987427,272.875000 
M801.006470,287.658142 
	C811.379761,278.602600 812.467834,263.620605 803.410339,254.557449 
	C794.650024,245.791733 779.997009,246.265167 771.772400,255.579651 
	C765.099854,263.136414 764.896423,276.410889 771.333557,284.215271 
	C778.059021,292.369385 790.017395,293.953705 801.006470,287.658142 
z"/>
<path fill="#020202" opacity="1.000000" stroke="none" 
	d="
M365.598480,289.446655 
	C369.143799,291.265564 372.374878,292.881805 375.875946,294.633118 
	C368.028961,307.766479 356.557770,314.880371 342.084167,317.457733 
	C322.777802,320.895721 305.282379,317.631500 291.152496,302.948334 
	C277.757843,289.029205 274.143890,272.389984 280.378052,254.518280 
	C286.717224,236.345490 300.353455,225.300186 319.419403,222.084930 
	C335.141998,219.433533 349.971069,222.214386 362.518677,232.825577 
	C375.256439,243.597580 377.935944,258.098511 377.492401,274.195496 
	C355.186890,274.195496 333.271118,274.195496 311.420502,274.195496 
	C310.029663,283.645874 316.481354,291.577911 326.656647,292.977173 
	C335.436096,294.184479 343.687775,292.870270 350.064087,286.005310 
	C352.244690,283.657623 354.088562,283.249786 356.839935,284.990021 
	C359.490997,286.666870 362.456757,287.846161 365.598480,289.446655 
M335.473236,256.861359 
	C338.948700,256.861359 342.424133,256.861359 345.903229,256.861359 
	C345.702454,247.383011 338.633850,241.620148 327.909485,241.925568 
	C318.298309,242.199280 311.908203,248.120041 312.115509,256.861359 
	C319.563446,256.861359 327.021515,256.861359 335.473236,256.861359 
z"/>
<path fill="#020202" opacity="1.000000" stroke="none" 
	d="
M1008.036499,236.991562 
	C1008.036499,240.804337 1008.036499,244.120270 1008.036499,247.965485 
	C1001.672424,247.965485 995.456726,247.965485 989.022888,247.965485 
	C989.022888,259.755768 988.603943,271.039581 989.165405,282.274384 
	C989.561462,290.199371 994.316528,291.763611 1003.809448,287.638977 
	C1006.366516,295.892181 1008.911011,304.104980 1011.559448,312.653076 
	C1006.264099,316.256866 1000.375000,317.575348 994.262939,318.294373 
	C971.536621,320.967896 957.594299,309.117371 957.046631,286.274628 
	C956.747559,273.800110 956.993225,261.312531 956.993225,248.276260 
	C952.595825,248.276260 948.380127,248.276260 943.937256,248.276260 
	C943.937256,239.983139 943.937256,232.240433 943.937256,224.148529 
	C948.030273,224.148529 952.136108,224.148529 956.769897,224.148529 
	C956.769897,212.608231 956.769897,201.392944 956.769897,189.943756 
	C967.542908,189.943756 977.787415,189.943756 988.456909,189.943756 
	C988.456909,201.055023 988.456909,212.132019 988.456909,223.707428 
	C995.063660,223.707428 1001.279907,223.707428 1008.036499,223.707428 
	C1008.036499,228.289001 1008.036499,232.391861 1008.036499,236.991562 
z"/>
<path fill="#020202" opacity="1.000000" stroke="none" 
	d="
M885.928467,316.002869 
	C877.803650,316.002869 870.167908,316.002869 862.269653,316.002869 
	C862.269653,285.336823 862.269653,254.938354 862.269653,224.246704 
	C872.615234,224.246704 882.997681,224.246704 893.820435,224.246704 
	C893.820435,228.233078 893.820435,232.133820 893.820435,237.241013 
	C901.460693,227.767715 909.957581,221.714279 921.303955,221.262177 
	C928.719910,220.966675 935.728210,222.794220 942.375305,227.025330 
	C937.999207,235.912155 933.764771,244.511398 929.742249,252.680267 
	C924.571167,251.393478 919.735352,249.442352 914.789368,249.104736 
	C901.868225,248.222763 893.975891,255.898010 893.886047,268.874146 
	C893.778931,284.349609 893.860779,299.826385 893.860779,316.002869 
	C891.256592,316.002869 888.837097,316.002869 885.928467,316.002869 
z"/>
<path fill="#0E0E0E" opacity="1.000000" stroke="none" 
	d="
M752.997131,347.721802 
	C825.475281,348.134155 897.454041,348.542725 969.432739,348.951355 
	C970.599060,348.957977 971.905334,348.629242 972.902344,349.043762 
	C974.928955,349.886414 976.788513,351.130829 978.716919,352.209656 
	C976.859314,352.815186 974.998047,353.961914 973.144653,353.949280 
	C790.533875,352.704529 607.923584,351.399963 425.313812,350.017944 
	C393.993774,349.780945 362.676086,349.209747 331.358459,348.719574 
	C329.279297,348.687042 327.209900,348.029083 325.135925,347.661987 
	C325.207825,346.789337 325.279694,345.916687 325.351593,345.044037 
	C467.734680,345.559540 610.115234,346.982147 752.997131,347.721802 
z"/>
<path fill="#000000" opacity="1.000000" stroke="none" 
	d="
M528.986450,223.960693 
	C532.939819,223.960693 536.395020,223.960693 540.018188,223.960693 
	C540.018188,254.784378 540.018188,285.163940 540.018188,315.771393 
	C529.614075,315.771393 519.361511,315.771393 508.829773,315.771393 
	C508.829773,285.323853 508.829773,254.942657 508.829773,223.960693 
	C515.280090,223.960693 521.884216,223.960693 528.986450,223.960693 
z"/>
<path fill="#040404" opacity="1.000000" stroke="none" 
	d="
M512.807007,200.259583 
	C503.878693,191.110672 503.793488,179.672745 512.324951,171.916962 
	C520.215759,164.743607 531.869873,165.460617 539.021912,173.559464 
	C545.286316,180.653168 545.296204,190.992233 539.045471,198.141968 
	C532.254028,205.910156 522.274597,206.817368 512.807007,200.259583 
z"/>
<path fill="#FCFCFC" opacity="1.000000" stroke="none" 
	d="
M800.696777,287.861328 
	C790.017395,293.953705 778.059021,292.369385 771.333557,284.215271 
	C764.896423,276.410889 765.099854,263.136414 771.772400,255.579651 
	C779.997009,246.265167 794.650024,245.791733 803.410339,254.557449 
	C812.467834,263.620605 811.379761,278.602600 800.696777,287.861328 
z"/>
<path fill="#F7F7F7" opacity="1.000000" stroke="none" 
	d="
M334.976440,256.861359 
	C327.021515,256.861359 319.563446,256.861359 312.115509,256.861359 
	C311.908203,248.120041 318.298309,242.199280 327.909485,241.925568 
	C338.633850,241.620148 345.702454,247.383011 345.903229,256.861359 
	C342.424133,256.861359 338.948700,256.861359 334.976440,256.861359 
z"/>
</svg>