<svg width="301" height="84" viewBox="0 0 301 84" fill="none" xmlns="http://www.w3.org/2000/svg">
<g clip-path="url(#clip0_4007_7)">
<path fill-rule="evenodd" clip-rule="evenodd" d="M30.427 38.478C30.0936 37.1473 29.3682 35.5268 28.9022 34.2354C28.545 33.2462 27.877 30.7436 27.2814 30.1472C27.2794 29.4856 26.2944 26.7903 25.9378 26.1511L25.2268 24.0022C24.9436 23.4591 25.359 23.7507 24.4532 23.6871L17.2695 23.6966L17.2618 28.1187C18.2768 28.455 19.0091 29.412 19.0091 30.5398C19.0091 31.948 17.8673 33.0895 16.459 33.0895C15.0508 33.0895 13.9092 31.948 13.9092 30.5398C13.9092 29.5024 14.5287 28.6096 15.4176 28.2114C15.7505 27.1761 15.4393 24.8945 15.5121 23.682L7.73219 23.6987C7.63301 23.9069 7.67686 23.7529 7.58804 24.1261C6.10832 39.2932 4.62892 54.455 3.19552 69.6262C2.831 71.6711 2.3625 75.9547 3.00839 77.7842C3.77524 79.9552 5.50492 81.6243 7.69201 82.3394C10.2325 82.9013 13.4638 82.6417 16.1611 82.642C19.1327 82.6425 22.105 82.6422 25.0756 82.6438L25.0347 69.5026L25.0449 72.7442C25.052 71.2277 25.0593 69.7132 25.0587 68.206C25.058 65.7744 25.0595 63.343 25.0591 60.9116C25.0587 59.2181 24.8514 54.8661 25.1402 53.4848L27.9753 61.2594C30.276 67.2203 32.7888 76.7319 35.6627 82.1646C35.8232 82.9139 35.7926 82.6492 37.8821 82.6436L45.6626 82.6443C48.775 82.6474 52.5781 83.0999 54.8835 81.5233C55.3543 81.2231 55.3745 81.2731 55.508 80.9786C56.8754 80.2908 58.4533 77.5896 58.2196 75.0124C57.9789 72.3563 57.6998 69.6658 57.4492 67.0296C56.9413 61.6852 56.4362 56.3154 55.8893 51.0007L54.6274 37.8553C54.2541 35.3664 53.7449 24.9977 53.1191 23.7109L45.4479 23.682L45.4357 28.185C46.3576 28.569 47.006 29.4786 47.006 30.5398C47.006 31.948 45.8644 33.0895 44.4562 33.0895C43.0479 33.0895 41.9061 31.948 41.9061 30.5398C41.9061 29.4262 42.6201 28.4792 43.6152 28.1319L43.6008 23.6836L35.7839 23.7213L35.792 52.6655L30.427 38.478Z" fill="#1C6BD2"/>
<path fill-rule="evenodd" clip-rule="evenodd" d="M17.262 28.0503L17.2696 23.6282C17.1327 18.3197 16.9985 14.2821 19.9214 10.6181C22.5361 7.34049 25.8451 5.32403 30.4258 5.3261C33.6051 5.32746 36.8035 6.56208 39.02 8.48997C39.4058 8.82539 39.5712 9.13881 39.969 9.48261C40.6118 10.0383 40.4943 10.004 40.9456 10.6054C43.7958 14.4014 43.8263 18.1062 43.601 23.6151L43.6154 28.0634C43.8787 27.9714 44.1616 27.9212 44.4564 27.9212C44.8036 27.9212 45.1342 27.9909 45.4359 28.1165L45.4481 23.6135C45.1516 17.7737 46.2789 14.0511 41.7933 8.62918L40.6773 7.47341C39.9805 6.68392 37.4987 5.18027 36.3276 4.67654C34.0457 3.69498 31.0839 3.24027 28.328 3.6441C24.5354 4.20014 21.5471 5.93627 19.1501 8.55438C16.6603 11.2739 15.4096 15.0462 15.4103 19.0224C15.4107 21.8594 15.2089 25.4231 15.4019 28.1504C15.7242 28.0034 16.0822 27.9212 16.4592 27.9212C16.7397 27.9212 17.0096 27.9664 17.262 28.0503Z" fill="#625DF5"/>
<path d="M17.5325 27.0923L17.5403 22.5921C17.4036 17.1897 17.2694 13.0807 20.1901 9.35196C22.8028 6.01633 26.1094 3.96423 30.6863 3.9663C33.8632 3.96784 37.0595 5.22438 39.2742 7.18617C39.6598 7.5276 39.8252 7.84655 40.2226 8.19646C40.8647 8.76193 40.7473 8.72707 41.1985 9.33913C44.0464 13.2022 44.0768 16.9724 43.8518 22.5787L43.8015 26.9609C44.199 27.0077 44.6223 26.8358 44.6027 27.086C44.9495 27.086 45.384 27.0319 45.6853 27.1598L45.6974 22.5771C45.4013 16.634 46.5276 12.8457 42.0454 7.32768L40.9303 6.15178C40.2341 5.34828 37.7542 3.81802 36.5839 3.30538C34.3036 2.30657 31.3442 1.8435 28.5903 2.25482C24.8007 2.82056 21.8145 4.58722 19.4193 7.25191C16.9316 10.0195 15.6817 13.8585 15.6825 17.9049C15.6827 20.792 15.2152 27.0923 15.2321 27.1523C15.249 27.2124 16.8487 27.1029 16.7896 27.0318C16.7305 26.9608 17.2417 27.1523 17.5325 27.0923Z" fill="#1C6BD2" stroke="#1C6BD2" stroke-width="2.09911" stroke-miterlimit="22.9256"/>
<path d="M87.2962 83.2632C82.7608 83.2632 78.7293 82.3394 75.2017 80.4916C71.6742 78.6438 68.9025 76.0681 66.8868 72.7646C64.927 69.461 63.9471 65.6254 63.9471 61.258C63.9471 56.8905 64.927 53.055 66.8868 49.7514C68.8465 46.4478 71.5622 43.8722 75.0337 42.0244C78.5053 40.1766 82.5088 39.2527 87.0442 39.2527C91.3557 39.2527 95.1352 40.2046 98.3828 42.1084C101.686 43.9562 104.262 46.7838 106.11 50.5913C108.014 54.3989 108.966 59.2142 108.966 65.0375H77.5534L79.4012 62.8538C79.4012 64.6456 79.6812 66.2134 80.2411 67.5572C80.801 68.901 81.6409 69.9369 82.7608 70.6648C83.8806 71.3927 85.2525 71.7567 86.8763 71.7567C88.724 71.7567 90.3198 71.3367 91.6637 70.4968C93.0635 69.601 93.9314 68.5091 94.2673 67.2212L107.538 71.3367C106.53 74.2484 104.906 76.6001 102.666 78.3919C100.483 80.1276 98.0189 81.3875 95.2752 82.1714C92.5875 82.8993 89.9279 83.2632 87.2962 83.2632ZM79.4852 58.2344L77.8894 55.7987H95.2752L93.7634 58.2344C93.7634 56.0506 93.3994 54.3429 92.6715 53.111C91.9436 51.8792 91.0197 51.0113 89.8999 50.5073C88.836 49.9474 87.7442 49.6674 86.6243 49.6674C85.4484 49.6674 84.3006 49.9474 83.1807 50.5073C82.1169 51.0113 81.221 51.8792 80.4931 53.111C79.8211 54.3429 79.4852 56.0506 79.4852 58.2344ZM111.496 82.2554L128.798 58.4024L140.725 40.2606H158.53L141.145 64.3656L129.47 82.2554H111.496ZM141.649 82.2554L130.142 64.3656L112.588 40.2606H130.394L142.32 58.4024L159.538 82.2554H141.649ZM186.23 83.2632C181.023 83.2632 177.159 82.0314 174.639 79.5677C172.12 77.104 170.86 73.5765 170.86 68.985V27.1583H185.978V64.8695C185.978 66.4373 186.202 67.5572 186.65 68.2291C187.098 68.901 187.854 69.237 188.918 69.237C189.366 69.237 189.925 69.097 190.597 68.817C191.269 68.5371 191.801 68.2571 192.193 67.9772L197.317 78.8958C196.029 80.0157 194.349 81.0235 192.277 81.9194C190.205 82.8153 188.19 83.2632 186.23 83.2632ZM164.561 52.859V40.2606H194.629V52.859H164.561ZM229.834 82.2554L229.414 72.5966V61.6779C229.414 59.7182 229.302 57.9544 229.078 56.3866C228.854 54.8188 228.294 53.587 227.398 52.6911C226.502 51.7952 225.046 51.3472 223.03 51.3472C221.631 51.3472 220.483 51.6832 219.587 52.3551C218.691 53.027 217.935 53.8109 217.319 54.7068L204.133 50.5073C205.309 48.2116 206.764 46.2239 208.5 44.5441C210.292 42.8643 212.364 41.5765 214.715 40.6806C217.123 39.7287 219.783 39.2527 222.694 39.2527C227.174 39.2527 231.009 40.0646 234.201 41.6884C237.393 43.3122 239.828 45.58 241.508 48.4916C243.188 51.4032 244.028 54.7908 244.028 58.6543V82.2554H229.834ZM218.663 83.2632C213.792 83.2632 209.984 82.1714 207.24 79.9877C204.553 77.7479 203.209 74.5563 203.209 70.4129C203.209 66.0454 204.553 62.8258 207.24 60.7541C209.984 58.6263 213.792 57.5625 218.663 57.5625H231.009V66.2134H224.626C222.667 66.2134 221.155 66.5493 220.091 67.2212C219.027 67.8932 218.495 68.845 218.495 70.0769C218.495 70.9168 218.859 71.5607 219.587 72.0087C220.315 72.4566 221.323 72.6806 222.611 72.6806C224.01 72.6806 225.214 72.4286 226.222 71.9247C227.23 71.3647 228.014 70.6088 228.574 69.6569C229.134 68.6491 229.414 67.5012 229.414 66.2134H233.361C233.361 71.6447 232.073 75.8442 229.498 78.8118C226.922 81.7794 223.31 83.2632 218.663 83.2632ZM254.518 82.2554V23.4627H269.636V82.2554H254.518ZM280.515 82.2554V23.4627H295.633V82.2554H280.515Z" fill="#161C24"/>
</g>
<defs>
<clipPath id="clip0_4007_7">
<rect width="300" height="83.9895" fill="white" transform="translate(0.5 0.00537109)"/>
</clipPath>
</defs>
</svg>
